HIERARCHY
ROOT Hips
{
	OFFSET 0.000000 0.000000 0.000000 
	CHANNELS 6 Xposition Yposition Zposition Yrotation Zrotation Xrotation 
	JOINT Lumbar
	{
		OFFSET 0.000000 0.000000 0.000000 
		CHANNELS 3 Zrotation Xrotation Yrotation
		JOINT Neck
		{
			OFFSET 0.000000 0.445665 0.000000 
			CHANNELS 3 Zrotation Xrotation Yrotation
			End Site
			{
				OFFSET 0.000000 0.227535 0.000000 
			}
		}
		JOINT RightShoulder
		{
			OFFSET 0.019635 0.377685 0.194865 
			CHANNELS 3 Zrotation Xrotation Yrotation
			JOINT RightElbow
			{
				OFFSET 0.000000 -0.243375 0.000000 
				CHANNELS 2 Zrotation Yrotation
				JOINT RightWrist
				{
					OFFSET 0.000000 -0.264825 0.000000 
					CHANNELS 2 Zrotation Xrotation
					End Site
					{
						OFFSET 0.006600 -0.176220 0.000990 
					}
				}
			}
		}
		JOINT LeftShoulder
		{
			OFFSET 0.019635 0.377685 -0.194865 
			CHANNELS 3 Zrotation Xrotation Yrotation
			JOINT LeftElbow
			{
				OFFSET 0.000000 -0.243375 0.000000 
				CHANNELS 2 Zrotation Yrotation
				JOINT LeftWrist
				{
					OFFSET 0.000000 -0.264825 0.000000 
					CHANNELS 2 Zrotation Xrotation
					End Site
					{
						OFFSET 0.006600 -0.176220 -0.000990 
					}
				}
			}
		}
	}
	JOINT RightHip
	{
		OFFSET 0.052140 -0.069960 0.075570 
		CHANNELS 3 Zrotation Xrotation Yrotation
		JOINT RightKnee
		{
			OFFSET 0.000000 -0.402270 0.000000 
			CHANNELS 1 Zrotation
			JOINT RightAnkle
			{
				OFFSET 0.000000 -0.404085 0.000000 
				CHANNELS 3 Zrotation Xrotation Yrotation
				End Site
				{
					OFFSET 0.204105 -0.089430 0.008415 
				}
			}
		}
	}
	JOINT LeftHip
	{
		OFFSET 0.052140 -0.069960 -0.075570 
		CHANNELS 3 Zrotation Xrotation Yrotation
		JOINT LeftKnee
		{
			OFFSET 0.000000 -0.402270 0.000000 
			CHANNELS 1 Zrotation
			JOINT LeftAnkle
			{
				OFFSET 0.000000 -0.404085 0.000000 
				CHANNELS 3 Zrotation Xrotation Yrotation
				End Site
				{
					OFFSET 0.204105 -0.089430 -0.008415 
				}
			}
		}
	}
}
MOTION
Frames: 30
Frame Time: 0.02
0.16087 -7e-05 0.09453 -191.61055 -34.64581 -3.26223 38.17187 3.42164 -0.52198 -6.33969 7.33598 -2.11846 8.27738 -5.82419 48.49856 128.81889 66.43428 21.75166 -4.06156 -4.86912 30.24653 -16.3301 53.49913 -90.9825 6.98748 -0.65421 42.29243 -5.75937 -11.01079 -25.15406 -6.79009 -2.02694 -3.22853 44.9056 6.85326 8.92277 -28.67454 -6.71108 1.88797 3.16472
0.16448 1e-05 0.09065 -191.41289 -34.6994 -3.10101 37.76653 3.48933 -0.43027 -6.55237 7.66469 -2.11851 7.8877 -5.02763 49.41314 129.38546 66.57162 21.92563 -3.82263 -5.68776 29.86814 -16.29459 52.30953 -91.44391 7.24432 -0.73208 42.47268 -5.65442 -11.24834 -25.09501 -6.78115 -2.01047 -3.22081 45.21694 6.9975 8.86083 -28.70263 -6.75141 1.8671 3.15621
0.16832 2e-05 0.08668 -191.15024 -34.74412 -2.91704 37.34077 3.56343 -0.30764 -6.89803 7.93642 -2.11855 7.27802 -4.49362 49.91409 129.62978 66.77858 22.0325 -3.60925 -6.53562 29.40459 -16.20786 51.28944 -91.96342 7.63507 -0.80078 42.65644 -5.55043 -11.42805 -25.04433 -6.77233 -2.00151 -3.2182 45.55789 7.14754 8.85681 -28.75038 -6.79643 1.83386 3.14183
0.17207 6e-05 0.08273 -190.90979 -34.78702 -2.74413 36.91917 3.63604 -0.20147 -7.18357 8.23164 -2.11859 6.77799 -3.84936 50.59586 130.0063 66.99017 22.16734 -3.39503 -7.37147 28.98008 -16.14025 50.20898 -92.45441 7.96166 -0.8724 42.83269 -5.4434 -11.62942 -24.99143 -6.76341 -1.99062 -3.21387 45.88285 7.29677 8.82606 -28.79247 -6.83971 1.80545 3.12977
0.17579 0.00013 0.07884 -190.70011 -34.85591 -2.56884 36.51676 3.70281 -0.08774 -7.47132 8.53323 -2.11863 6.24078 -3.15147 51.29998 130.40589 67.0971 22.30652 -3.1244 -8.21542 28.54854 -16.07896 49.06475 -92.96328 8.30569 -0.95041 43.03666 -5.34712 -11.85552 -24.93287 -6.75464 -1.97319 -3.20679 46.22093 7.43882 8.79336 -28.81996 -6.88103 1.78046 3.11918
0.17961 0.00012 0.07481 -190.41084 -34.86899 -2.39305 36.07153 3.7831 0.01881 -7.78334 8.80932 -2.11867 5.72785 -2.6336 51.8621 130.6947 67.4166 22.42275 -2.98114 -9.04285 28.11463 -15.99758 48.09058 -93.44504 8.64414 -1.01251 43.18379 -5.22899 -12.01634 -24.88802 -6.74557 -1.9711 -3.20665 46.53914 7.59723 8.77962 -28.88322 -6.92769 1.74535 3.10412
0.18366 -1e-05 0.07046 -189.91971 -34.71851 -2.21899 35.50003 3.90056 0.09509 -8.14659 9.03077 -2.11871 5.32984 -2.54785 52.13529 130.76166 68.34711 22.49724 -3.18759 -9.83511 27.68202 -15.86138 47.55105 -93.84032 8.93065 -1.03278 43.15888 -5.04749 -11.98644 -24.875 -6.73596 -2.01164 -3.22539 46.77807 7.7963 8.80636 -29.03534 -6.98759 1.68588 3.07842
0.18781 -0.00022 0.06598 -189.35055 -34.51389 -2.04557 34.88891 4.03111 0.16391 -8.52628 9.22865 -2.11875 4.96445 -2.63646 52.28027 130.73242 69.47488 22.55108 -3.52168 -10.60476 27.25306 -15.71005 47.17486 -94.2045 9.20688 -1.03722 43.07855 -4.84443 -11.89613 -24.87603 -6.72599 -2.06705 -3.25081 46.99831 8.01186 8.84958 -29.22361 -7.05278 1.61664 3.04841
0.19191 -0.0004 0.06154 -188.81566 -34.3415 -1.87333 34.30446 4.15477 0.2384 -8.88719 9.4368 -2.11879 4.58738 -2.64799 52.48424 130.74947 70.47939 22.6118 -3.79677 -11.37154 26.83152 -15.5753 46.71859 -94.58009 9.49002 -1.04882 43.03261 -4.6531 -11.84885 -24.8731 -6.71596 -2.11433 -3.27256 47.23819 8.22216 8.8853 -29.39894 -7.1159 1.55139 3.02014
0.19602 -0.00054 0.05715 -188.28292 -34.13714 -1.69402 33.68203 4.28277 0.3044 -9.30052 9.64512 -2.11883 4.18918 -2.65954 52.67205 130.74463 71.63013 22.68015 -4.07868 -12.19511 26.36844 -15.39899 46.29253 -94.96974 9.7693 -1.06026 42.94876 -4.45381 -11.73492 -24.86034 -6.70685 -2.16759 -3.29711 47.43338 8.42431 8.92609 -29.56092 -7.17796 1.48721 2.99241
0.20012 -0.00079 0.05263 -187.7288 -33.98599 -1.53 33.13038 4.4046 0.38577 -9.60681 9.84777 -2.11887 3.84592 -2.70875 52.86664 130.76577 72.52072 22.7292 -4.37396 -12.89455 25.99409 -15.3046 45.84077 -95.32146 10.05134 -1.06839 42.92969 -4.26577 -11.74496 -24.87117 -6.69576 -2.2119 -3.3174 47.71524 8.6459 8.95562 -29.75815 -7.2432 1.41914 2.96284
0.20418 -0.00136 0.04777 -187.12852 -34.00027 -1.40695 32.77742 4.50738 0.51264 -9.61309 10.04479 -2.1189 3.645 -2.82203 53.1295 130.89491 72.65406 22.72496 -4.69709 -13.25616 25.86265 -15.45609 45.27177 -95.57903 10.35194 -1.07132 43.11108 -4.11611 -12.12255 -24.94434 -6.67923 -2.22711 -3.324 48.25367 8.92868 8.98334 -30.05116 -7.31779 1.33859 2.92725
0.20821 -0.00204 0.04279 -186.511 -34.06896 -1.29955 32.49853 4.6032 0.6548 -9.51065 10.23627 -2.11892 3.50001 -2.96563 53.40247 131.05296 72.51684 22.70303 -5.02556 -13.49345 25.82109 -15.68802 44.67186 -95.79849 10.65337 -1.07149 43.35792 -3.97825 -12.62527 -25.04053 -6.66072 -2.23288 -3.32613 48.87712 9.22818 8.99285 -30.37668 -7.39504 1.25531 2.89034
0.21221 -0.00266 0.03787 -185.90569 -34.10937 -1.18588 32.18984 4.7014 0.78909 -9.45736 10.42797 -2.11894 3.33093 -3.09199 53.66082 131.19114 72.49642 22.69317 -5.3363 -13.78801 25.7396 -15.87274 44.08898 -96.0333 10.94824 -1.07294 43.56963 -3.83353 -13.06414 -25.12581 -6.64313 -2.2434 -3.33049 49.45357 9.51252 8.9883 -30.68279 -7.46987 1.17609 2.85536
0.21639 -0.00329 0.03291 -185.2788 -34.16307 -1.06881 31.86274 4.8035 0.92728 -9.40511 10.62913 -2.11897 3.15558 -3.2383 53.95612 131.35393 72.50763 22.66658 -5.71399 -14.07897 25.65419 -16.10117 43.49812 -96.2759 11.26909 -1.07378 43.80262 -3.69397 -13.53047 -25.21377 -6.62543 -2.25254 -3.33422 50.066 9.82969 9.07787 -31.01088 -7.55003 1.08464 2.81462
0.22018 -0.00394 0.02802 -184.69421 -34.20248 -0.96234 31.59299 4.8955 1.06074 -9.32552 10.80881 -2.11899 3.00827 -3.34908 54.17939 131.47389 72.38776 22.66962 -5.95449 -14.34764 25.59841 -16.25875 42.91591 -96.49296 11.53595 -1.07537 44.00697 -3.54726 -13.96997 -25.30109 -6.60753 -2.26207 -3.33812 50.62226 10.0818 8.96787 -31.29903 -7.61958 1.01809 2.7856
0.223 -0.00461 0.02331 -184.22768 -34.19155 -0.8832 31.45637 4.96255 1.18026 -9.18951 10.93738 -2.11899 2.90667 -3.34335 54.19525 131.46712 71.95612 22.77025 -5.79074 -14.58976 25.60128 -16.19341 42.35163 -96.65419 11.655 -1.08047 44.12177 -3.37335 -14.30576 -25.38387 -6.58919 -2.27531 -3.34371 51.01704 10.15388 8.30218 -31.48071 -7.65971 1.02162 2.78932
0.22542 -0.00529 0.01868 -183.80535 -34.16432 -0.81389 31.37663 5.0194 1.29391 -9.03125 11.04342 -2.11899 2.83429 -3.30186 54.13994 131.41704 71.4035 22.8994 -5.49212 -14.81282 25.63106 -16.05547 41.79922 -96.78998 11.71934 -1.08639 44.20491 -3.19269 -14.60987 -25.46464 -6.57082 -2.28917 -3.3496 51.3499 10.15916 7.43796 -31.61871 -7.68894 1.05028 2.80488
0.22799 -0.00595 0.01406 -183.365 -34.14305 -0.73873 31.27548 5.08004 1.40852 -8.88775 11.1553 -2.119 2.76058 -3.28314 54.12204 131.38823 70.91623 23.00797 -5.27104 -15.04194 25.64929 -15.95587 41.24889 -96.93427 11.80794 -1.09153 44.29893 -3.01835 -14.9288 -25.54432 -6.55272 -2.30243 -3.35519 51.70156 10.19243 6.67035 -31.76878 -7.72277 1.06703 2.81498
0.2307 -0.00666 0.00927 -182.91489 -34.12918 -0.66967 31.15739 5.14399 1.5312 -8.72001 11.28525 -2.119 2.63957 -3.23847 54.08363 131.35363 70.37738 23.1476 -4.98365 -15.27841 25.66783 -15.83661 40.66437 -97.09092 11.89957 -1.09822 44.40922 -2.8311 -15.25233 -25.6331 -6.5334 -2.31657 -3.36122 52.09505 10.23614 5.87476 -31.95278 -7.75816 1.0856 2.82535
0.23302 -0.00726 0.00484 -182.49631 -34.09605 -0.59039 31.08807 5.19877 1.63508 -8.59991 11.37265 -2.119 2.62181 -3.23844 54.07015 131.32047 69.91882 23.23015 -4.79974 -15.49578 25.69091 -15.73986 40.15636 -97.21532 11.97131 -1.10198 44.47828 -2.66845 -15.55455 -25.70237 -6.51669 -2.32934 -3.36657 52.38629 10.2422 5.09103 -32.05539 -7.7877 1.10657 2.83802
0.23438 -0.00751 0.00132 -182.15036 -34.00664 -0.47742 31.13045 5.23018 1.69178 -8.60852 11.3452 -2.119 2.89423 -3.37424 54.14973 131.30162 69.72964 23.14307 -4.95616 -15.67285 25.71985 -15.72395 39.83935 -97.26545 12.00649 -1.0968 44.43139 -2.58002 -15.82783 -25.7161 -6.5067 -2.33629 -3.36896 52.40344 10.15988 4.38744 -31.94303 -7.80379 1.12608 2.85372
0.23536 -0.00764 -0.00184 -181.83533 -33.89905 -0.35435 31.22074 5.25283 1.729 -8.66786 11.27642 -2.119 3.26684 -3.55527 54.25557 131.28564 69.62386 22.9986 -5.21757 -15.83034 25.75203 -15.73266 39.60263 -97.28283 12.02267 -1.08873 44.34511 -2.51578 -16.07651 -25.7105 -6.49943 -2.3422 -3.37084 52.32032 10.04259 3.70503 -31.75037 -7.8144 1.14726 2.87129
0.2365 -0.00783 -0.00513 -181.50869 -33.80469 -0.2378 31.29532 5.27996 1.77303 -8.71003 11.22825 -2.119 3.58544 -3.71296 54.34489 131.26834 69.46877 22.88374 -5.41636 -15.99258 25.78229 -15.72902 39.34029 -97.30952 12.04419 -1.08243 44.28363 -2.43721 -16.3206 -25.71511 -6.49126 -2.34993 -3.37367 52.2877 9.94105 3.01115 -31.59475 -7.82742 1.16929 2.88841
0.23767 -0.00801 -0.00853 -181.1735 -33.69051 -0.11332 31.34844 5.3048 1.82585 -8.72675 11.1709 -2.119 3.94141 -3.88134 54.45105 131.24948 69.35553 22.75485 -5.67227 -16.1724 25.81526 -15.72762 39.03122 -97.35789 12.07744 -1.07433 44.19406 -2.372 -16.62807 -25.71385 -6.48169 -2.35212 -3.37358 52.23372 9.83551 2.3096 -31.43484 -7.8402 1.18644 2.9047
0.23869 -0.00817 -0.01163 -180.86263 -33.6114 -0.00299 31.45422 5.33224 1.85537 -8.8085 11.124 -2.119 4.24227 -4.03845 54.52935 131.23527 69.17898 22.64134 -5.8373 -16.31017 25.84318 -15.72856 38.83996 -97.3548 12.08281 -1.06918 44.15143 -2.28542 -16.8008 -25.72 -6.47563 -2.3654 -3.37933 52.19925 9.73369 1.64232 -31.26598 -7.85257 1.21254 2.92245
0.23937 -0.00832 -0.014 -180.61373 -33.65218 0.06731 31.71688 5.37081 1.82908 -9.06021 11.10871 -2.119 4.37183 -4.15514 54.52377 131.23201 68.78754 22.58292 -5.71385 -16.34581 25.85458 -15.72791 38.94126 -97.2078 12.01282 -1.07371 44.27134 -2.12843 -16.58361 -25.75331 -6.47909 -2.41146 -3.4024 52.26068 9.62586 0.97072 -31.0867 -7.86311 1.27424 2.94881
0.23992 -0.00846 -0.01609 -180.38779 -33.72592 0.1228 32.0266 5.41199 1.77945 -9.37481 11.10673 -2.11901 4.44119 -4.25863 54.4895 131.23372 68.33411 22.54202 -5.49808 -16.33822 25.86092 -15.72931 39.16081 -97.01194 11.91621 -1.08115 44.43617 -1.95014 -16.23605 -25.7944 -6.48592 -2.46836 -3.43118 52.34265 9.52729 0.34905 -30.90236 -7.8738 1.34294 2.9757
0.24053 -0.0086 -0.01829 -180.14926 -33.77191 0.18414 32.29887 5.45085 1.73789 -9.65941 11.10373 -2.11901 4.53455 -4.36738 54.46934 131.23419 67.92217 22.49393 -5.33314 -16.34448 25.87063 -15.73165 39.3347 -96.84523 11.83415 -1.0867 44.56471 -1.78523 -15.96428 -25.83064 -6.49088 -2.51905 -3.45667 52.40352 9.4419 -0.23001 -30.72413 -7.88591 1.40059 2.99885
0.24112 -0.00874 -0.02053 -179.92004 -33.86944 0.24955 32.63933 5.49422 1.70585 -9.95339 11.07854 -2.11901 4.64604 -4.48143 54.44634 131.23062 67.45555 22.44081 -5.13474 -16.37443 25.8761 -15.72758 39.47707 -96.64869 11.74131 -1.09456 44.75684 -1.60554 -15.62272 -25.87171 -6.49732 -2.57514 -3.48509 52.50882 9.28449 -1.07456 -30.52718 -7.89185 1.49042 3.03634
